<?xml version="1.0" encoding="UTF-8"?>
<svg width="16px" height="16px" viewBox="0 0 16 16" version="1.1" xmlns="http://www.w3.org/2000/svg" xmlns:xlink="http://www.w3.org/1999/xlink">
    <title>形状结合 3备份</title>
    <g id="页面-1" stroke="none" stroke-width="1" fill="none" fill-rule="evenodd" opacity="0.560000002">
        <g id="Home" transform="translate(-1093.000000, -3431.000000)" fill="#FFFFFF">
            <g id="形状结合-3备份" transform="translate(1093.000000, 3431.000000)">
                <path d="M8,0 C8.27614237,-5.07265313e-17 8.5,0.223857625 8.5,0.5 L8.5,7.25 L15.5,7.25 C15.7761424,7.25 16,7.47385763 16,7.75 C16,8.02614237 15.7761424,8.25 15.5,8.25 L8.5,8.25 L8.5,15.5 C8.5,15.7761424 8.27614237,16 8,16 C7.72385763,16 7.5,15.7761424 7.5,15.5 L7.5,8.25 L0.5,8.25 C0.223857625,8.25 3.38176876e-17,8.02614237 0,7.75 C-3.38176876e-17,7.47385763 0.223857625,7.25 0.5,7.25 L7.5,7.25 L7.5,0.5 C7.5,0.223857625 7.72385763,5.07265313e-17 8,0 Z" id="形状结合"></path>
            </g>
        </g>
    </g>
</svg>