<?xml version="1.0" encoding="UTF-8"?>
<svg width="100px" height="100px" viewBox="0 0 100 100" version="1.1" xmlns="http://www.w3.org/2000/svg" xmlns:xlink="http://www.w3.org/1999/xlink">
    <title>编组 15</title>
    <g id="页面-1" stroke="none" stroke-width="1" fill="none" fill-rule="evenodd">
        <g id="Home" transform="translate(-170.000000, -1006.000000)">
            <g id="编组-15" transform="translate(170.000000, 1006.000000)">
                <rect id="矩形备份-34" x="0" y="0" width="100" height="100"></rect>
                <g id="编组-13" transform="translate(5.000000, 7.000000)">
                    <g id="achievement" transform="translate(1.071429, 0.000000)" fill="#172026" fill-rule="nonzero">
                        <path d="M84.3403453,44.4232375 C86.4831661,41.138632 86.08738,36.8650949 83.3777022,34.0305802 C82.1837966,32.7815257 81.6847344,31.0263833 82.042716,29.3354792 C82.8551969,25.498509 80.943005,21.6564673 77.3927569,19.9923996 C75.8286202,19.2591533 74.7295428,17.8032261 74.4528726,16.0971077 C73.8247681,12.2254826 70.6544662,9.33412538 66.7434909,9.06555014 C65.0205329,8.94721644 63.4697018,7.98660036 62.595762,6.49601834 C60.6123962,3.11294234 56.6118727,1.56234824 52.8683779,2.72561078 C51.2180722,3.23824928 49.4260523,2.90290002 48.0731142,1.82881038 C45.0016532,-0.609497802 40.7119989,-0.609709112 37.6413828,1.82881038 C36.2878111,2.90311133 34.4955799,3.23846059 32.8456966,2.72539947 C29.1017794,1.56340479 25.1018895,3.11294234 23.1185237,6.49601834 C22.2443728,7.98660036 20.6937528,8.94721644 18.9705836,9.06555014 C15.0596083,9.33412538 11.8895176,12.2256939 11.2614131,16.097319 C10.9847429,17.8032261 9.88566553,19.2591533 8.32152886,19.9923996 C4.77128075,21.6564673 2.85930001,25.498509 3.67156975,29.3356906 C4.02955134,31.0263833 3.5304891,32.7815257 2.33658353,34.0305802 C-0.373094236,36.8650949 -0.768880373,41.1388433 1.37394041,44.4230262 C2.31799805,45.8705009 2.48632332,47.6875571 1.82400458,49.2835829 C0.320693095,52.9060734 1.49474599,57.0340178 4.67877577,59.322507 C6.08155673,60.3306679 6.89467126,61.9643069 6.85327634,63.6919789 C6.75950417,67.6130506 9.34457477,71.0381774 13.1398132,72.0211923 C14.2597993,72.3113212 15.2327911,72.9598322 15.9301689,73.8441653 C17.2446841,76.9924797 18.5553076,78.9536136 19.8620395,79.7275669 C20.9815073,80.3906072 23.2597994,80.7765864 26.6969156,80.8855046 L26.6969158,80.8854978 C27.867978,80.9226074 28.9888186,81.369791 29.8638054,82.1489968 C32.2715815,84.2932039 33.9992972,85.4652635 35.0469527,85.6651756 C36.1999344,85.8851859 38.5342937,85.3659716 42.0500304,84.1075329 L42.0500299,84.1075314 C42.5260807,83.9371316 43.0490051,83.9533671 43.5135682,84.1529706 C46.3774078,85.3834434 48.8626002,85.7470149 50.9691453,85.2436852 C52.7324405,84.8223703 54.4448786,83.806465 56.1064595,82.1959693 L56.1064591,82.1959689 C57.0773902,81.254889 58.3880774,80.7471732 59.739603,80.7886121 C62.971302,80.8876987 65.1899528,80.278988 66.3955554,78.9624802 C67.4136694,77.9383098 68.5431899,76.232064 69.7841169,73.8437426 C70.4814946,72.9596208 71.4542752,72.3111099 72.5744725,72.020981 C76.3697109,71.0379661 78.9547815,67.6128393 78.8610094,63.6919789 C78.8198257,61.9640956 79.632729,60.3304566 81.0357211,59.3222957 C84.2195397,57.0338064 85.3935926,52.9058621 83.8902811,49.2835829 C83.2279624,47.6875571 83.3962877,45.8705009 84.3403453,44.4232375 Z M82.6881121,42.6918677 C81.1324612,45.0764223 80.8549914,48.0703896 81.9462429,50.7007031 C82.9057992,53.0128737 82.1565656,55.6479549 80.1239524,57.1086382 C77.8125698,58.7700029 76.4728733,61.4616477 76.5406704,64.3086798 C76.6004531,66.8115627 74.9503629,68.9980365 72.5276457,69.6254368 C70.2602337,70.2127442 68.3567166,71.6894646 67.2154295,73.6865264 C67.2130469,73.6910775 67.2104476,73.6956286 67.208065,73.7001796 C66.9656849,74.1262484 66.7557955,74.5744224 66.5868443,75.0440516 C65.7388392,77.3997826 63.4083954,78.8411779 60.9252457,78.5512085 C58.0972622,78.2204959 55.2957044,79.3073396 53.42901,81.4565378 C51.7878006,83.3465406 49.0958445,83.8501946 46.8834499,82.6809978 C44.4200112,81.379386 41.4014161,81.3299742 38.8444044,82.6809978 C36.63136,83.8504113 33.9398371,83.3465406 32.2988443,81.4565378 C30.4321499,79.3069062 27.6290759,78.2207126 24.8026087,78.5512085 C22.3166431,78.8405278 19.9887985,77.3993492 19.14101,75.0440516 C18.9722754,74.5752893 18.7630358,74.1281988 18.5213056,73.702997 C18.5176233,73.696062 18.5137244,73.689127 18.5100422,73.682192 C17.3685384,71.6872974 15.4658878,70.2123107 13.2002086,69.6252201 C10.7774914,68.9978198 9.12740121,66.8115627 9.18718395,64.3082463 C9.25519765,61.4612143 7.91550112,58.7695694 5.60390188,57.1084215 C3.57128876,55.6477382 2.82205508,53.0126569 3.78161136,50.7002696 C4.87286295,48.0701729 4.59560967,45.0764223 3.03974223,42.6914343 C1.67188717,40.5948987 1.92444758,37.8668452 3.65424814,36.0574617 C5.62144682,33.999502 6.44389268,31.1073925 5.85407965,28.3212584 C5.33574597,25.8719049 6.55631023,23.4193007 8.8224226,22.3571629 C11.3997951,21.1489568 13.2108222,18.7496653 13.6667739,15.9388253 C14.0677081,13.4671498 16.0914405,11.6213576 18.587803,11.4499332 C21.4272665,11.2551032 23.9823288,9.67240738 25.4225297,7.21590222 C26.689014,5.05630152 29.2423434,4.06676446 31.6321368,4.80880889 C34.3500854,5.6531445 37.3041324,5.10137898 39.5342885,3.33100486 C41.4943393,1.7747487 44.2328652,1.7747487 46.192916,3.33100486 C48.4228555,5.10116227 51.3769025,5.6531445 54.0948511,4.80902561 C56.4850777,4.06633102 59.0384071,5.0560848 60.3046748,7.21590222 C61.7448757,9.67240738 64.299938,11.2551032 67.1391848,11.4499332 C69.635764,11.6213576 71.6594964,13.4671498 72.0604306,15.9386086 C72.5163823,18.7496653 74.3274094,21.1491735 76.9047819,22.3571629 C79.1708943,23.4193007 80.3914585,25.8719049 79.8731249,28.3210416 C79.2833118,31.1071758 80.1055411,33.9992853 82.0729564,36.0574617 C83.8034067,37.8670619 84.0559671,40.5951154 82.6881121,42.6918677 Z" id="形状"></path>
                    </g>
                    <circle id="椭圆形" stroke="#172026" stroke-width="2" cx="43.9285714" cy="42.8571429" r="25.7857143"></circle>
                    <circle id="椭圆形" fill="#E6007A" cx="80.3571429" cy="19.2857143" r="9.64285714"></circle>
                    <circle id="椭圆形备份-4" fill="#E6007A" cx="10.7142857" cy="67.5" r="10.7142857"></circle>
                    <path d="M11.224608,62.6793704 L11.9829301,61.1688656 C12.0252046,61.0846589 12.1261239,61.0484479 12.2122908,61.0865683 L12.4584827,61.1954843 C12.7016875,61.3030788 12.8585447,61.5439946 12.8585447,61.8099366 L12.8585447,62.5223482 C12.8585447,63.0481636 12.7118791,63.5635562 12.4350349,64.0105898 L11.224608,65.965124 L15.3185143,65.965124 C15.7087925,65.965124 16.0251755,66.281507 16.0251755,66.6717852 C16.0251755,66.7477386 16.0129306,66.8231953 15.988912,66.8952511 L14.3400359,71.8418793 C14.2438494,72.1304389 13.9738067,72.3250746 13.6696383,72.3250746 L9.8335565,72.3250746 C9.67309389,72.3250746 9.51740901,72.2704633 9.39210876,72.1702231 L7.81902019,70.9117523 L7.81902019,65.965124 L11.224608,62.6793704 Z M6.75902842,65.965124 L6.75902842,70.9117523 L4.28571429,70.9117523 L4.28571429,65.965124 L6.75902842,65.965124 Z" id="形状" fill="#FFFFFF"></path>
                    <polyline id="路径-5" stroke="#FFFFFF" stroke-width="2" points="75.5021269 19.2857143 79.3431316 22.7200463 84.9028293 16.1399468"></polyline>
                    <rect id="矩形" fill="#E6007A" x="36.4285714" y="26.7857143" width="15" height="16.0714286" rx="7.5"></rect>
                    <path d="M38,46.0714286 L49.8571429,46.0714286 C54.2754209,46.0714286 57.8571429,49.6531506 57.8571429,54.0714286 L57.8571429,57.8571429 L57.8571429,57.8571429 L30,57.8571429 L30,54.0714286 C30,49.6531506 33.581722,46.0714286 38,46.0714286 Z" id="矩形备份-33" fill="#E6007A"></path>
                </g>
            </g>
        </g>
    </g>
</svg>