<?xml version="1.0" encoding="UTF-8"?>
<svg width="1122px" height="461px" viewBox="0 0 1122 461" version="1.1" xmlns="http://www.w3.org/2000/svg" xmlns:xlink="http://www.w3.org/1999/xlink">
    <title>形状结合</title>
    <g id="页面-1" stroke="none" stroke-width="1" fill="none" fill-rule="evenodd">
        <g id="Home" transform="translate(-80.000000, -124.000000)" fill="#E6007A" fill-rule="nonzero">
            <path d="M621,573 C624.313708,573 627,575.686292 627,579 C627,582.313708 624.313708,585 621,585 C617.686292,585 615,582.313708 615,579 C615,575.686292 617.686292,573 621,573 Z M1196,571 C1199.31371,571 1202,573.686292 1202,577 C1202,580.313708 1199.31371,583 1196,583 C1192.68629,583 1190,580.313708 1190,577 C1190,573.686292 1192.68629,571 1196,571 Z M1121,537 C1124.31371,537 1127,539.686292 1127,543 C1127,546.313708 1124.31371,549 1121,549 C1117.68629,549 1115,546.313708 1115,543 C1115,539.686292 1117.68629,537 1121,537 Z M144,522 C147.313708,522 150,524.686292 150,528 C150,531.313708 147.313708,534 144,534 C140.686292,534 138,531.313708 138,528 C138,524.686292 140.686292,522 144,522 Z M759,418 C762.313708,418 765,420.686292 765,424 C765,427.313708 762.313708,430 759,430 C755.686292,430 753,427.313708 753,424 C753,420.686292 755.686292,418 759,418 Z M721,380 C724.313708,380 727,382.686292 727,386 C727,389.313708 724.313708,392 721,392 C717.686292,392 715,389.313708 715,386 C715,382.686292 717.686292,380 721,380 Z M86,372 C89.3137085,372 92,374.686292 92,378 C92,381.313708 89.3137085,384 86,384 C82.6862915,384 80,381.313708 80,378 C80,374.686292 82.6862915,372 86,372 Z M858,308 C861.313708,308 864,310.686292 864,314 C864,317.313708 861.313708,320 858,320 C854.686292,320 852,317.313708 852,314 C852,310.686292 854.686292,308 858,308 Z M1001,238 C1004.31371,238 1007,240.686292 1007,244 C1007,247.313708 1004.31371,250 1001,250 C997.686292,250 995,247.313708 995,244 C995,240.686292 997.686292,238 1001,238 Z M487,203 C490.313708,203 493,205.686292 493,209 C493,212.313708 490.313708,215 487,215 C483.686292,215 481,212.313708 481,209 C481,205.686292 483.686292,203 487,203 Z M423,164 C426.313708,164 429,166.686292 429,170 C429,173.313708 426.313708,176 423,176 C419.686292,176 417,173.313708 417,170 C417,166.686292 419.686292,164 423,164 Z M759,160 C762.313708,160 765,162.686292 765,166 C765,169.313708 762.313708,172 759,172 C755.686292,172 753,169.313708 753,166 C753,162.686292 755.686292,160 759,160 Z M1106,144 C1109.31371,144 1112,146.686292 1112,150 C1112,153.313708 1109.31371,156 1106,156 C1102.68629,156 1100,153.313708 1100,150 C1100,146.686292 1102.68629,144 1106,144 Z M254,124 C257.313708,124 260,126.686292 260,130 C260,133.313708 257.313708,136 254,136 C250.686292,136 248,133.313708 248,130 C248,126.686292 250.686292,124 254,124 Z" id="形状结合"></path>
        </g>
    </g>
</svg>