<?xml version="1.0" encoding="UTF-8"?>
<svg width="32px" height="32px" viewBox="0 0 32 32" version="1.1" xmlns="http://www.w3.org/2000/svg" xmlns:xlink="http://www.w3.org/1999/xlink">
    <title>编组</title>
    <g id="页面-1" stroke="none" stroke-width="1" fill="none" fill-rule="evenodd">
        <g id="Announcements" transform="translate(-1187.000000, -548.000000)">
            <g id="编组" transform="translate(1187.000000, 548.000000)">
                <rect id="矩形" x="0" y="0" width="32" height="32"></rect>
                <g id="形状结合-3备份" transform="translate(8.000000, 8.000000)" fill="#E6007A">
                    <path d="M8,0 C8.27614237,-5.07265313e-17 8.5,0.223857625 8.5,0.5 L8.5,7.25 L15.5,7.25 C15.7761424,7.25 16,7.47385763 16,7.75 C16,8.02614237 15.7761424,8.25 15.5,8.25 L8.5,8.25 L8.5,15.5 C8.5,15.7761424 8.27614237,16 8,16 C7.72385763,16 7.5,15.7761424 7.5,15.5 L7.5,8.25 L0.5,8.25 C0.223857625,8.25 3.38176876e-17,8.02614237 0,7.75 C-3.38176876e-17,7.47385763 0.223857625,7.25 0.5,7.25 L7.5,7.25 L7.5,0.5 C7.5,0.223857625 7.72385763,5.07265313e-17 8,0 Z" id="形状结合"></path>
                </g>
            </g>
        </g>
    </g>
</svg>