<?xml version="1.0" encoding="UTF-8"?>
<svg width="32px" height="32px" viewBox="0 0 32 32" version="1.1" xmlns="http://www.w3.org/2000/svg" xmlns:xlink="http://www.w3.org/1999/xlink">
    <title>路径</title>
    <g id="页面-1" stroke="none" stroke-width="1" fill="none" fill-rule="evenodd">
        <g id="Elara中文" transform="translate(-1136.000000, -2370.000000)" fill="#616460" fill-rule="nonzero">
            <g id="-mockplus-" transform="translate(0.000000, 2176.000000)">
                <g id="编组备份" transform="translate(800.000000, 194.000000)">
                    <g id="github" transform="translate(336.000000, 0.028552)">
                        <path d="M1.2655625,9.76215166 C2.10890625,7.78686059 3.244375,6.08669969 4.672,4.66163775 C6.0985625,3.2376364 7.8018125,2.10420619 9.7816875,1.26131593 C11.7468313,0.422739369 13.8628314,-0.00641793094 16,0 C18.1667188,0 20.2394688,0.420546858 22.2183125,1.26340592 C24.1981875,2.10526679 25.9014375,3.23869699 27.328,4.66375893 C28.755625,6.08776028 29.891125,7.78795238 30.7344375,9.76427285 C31.574968,11.725079 32.0056155,13.8365353 32.0001074,15.9693002 C32.0001074,19.4417423 30.98425,22.5659358 28.9527813,25.3428788 C26.9223125,28.1187924 24.3127813,30.0476981 21.1251562,31.1285978 C20.9579375,31.1285978 20.8330313,31.0977158 20.7504688,31.0358583 C20.6668438,30.974032 20.6193437,30.9111763 20.6090313,30.8483206 C20.5967914,30.7554294 20.5916203,30.6617459 20.5935625,30.5680747 C20.5768149,30.5393102 20.566267,30.5073728 20.5625938,30.4743058 L20.5625938,26.4506052 C20.5625938,25.1831972 20.1145938,24.1012681 19.2185938,23.2068768 C21.6144375,22.7905942 23.4064375,21.9023792 24.5935625,20.5402042 C25.7806563,19.1779979 26.3752188,17.5293693 26.3752188,15.5952854 C26.3752188,13.7858835 25.792,12.2155516 24.6245313,10.8853191 C25.0415625,9.55402599 24.9682813,8.15061261 24.4067188,6.67404955 C23.8224375,6.63281122 23.187625,6.73175826 22.5001563,6.97079708 C21.8126563,7.20983591 21.3027188,7.43343375 20.9682813,7.64053003 C20.635875,7.84868689 20.3334063,8.04654978 20.0629688,8.23405628 C18.8542188,7.90124861 17.5050313,7.73433007 16.0165313,7.73433007 C14.5259063,7.73433007 13.188125,7.90124861 12,8.23405628 C11.7708438,8.06716894 11.5045313,7.88580763 11.203125,7.68794475 C10.900625,7.49011306 10.3752188,7.25107424 9.62478125,6.97079708 C8.87534375,6.68949053 8.19821875,6.56995552 7.59328125,6.61222325 C7.0100625,8.10940548 6.948125,9.53340682 7.4064375,10.8852879 C6.26065625,12.216581 5.68775,13.7858835 5.68775,15.5952542 C5.68775,17.5293382 6.27096875,19.1728509 7.4374375,20.5237026 C8.603875,21.8756149 10.395875,22.769975 12.812375,23.2068768 C12.1937491,23.7996006 11.75999,24.558218 11.5633438,25.3913541 C9.792,25.8271952 8.55225,25.5149755 7.844125,24.4536656 C6.53109375,22.5412302 5.3543125,21.8549957 4.31278125,22.3959602 C4.16621875,22.5412302 4.187875,22.6916784 4.37471875,22.8483029 C4.56259375,23.0038981 4.84334375,23.2120237 5.21909375,23.4717129 C5.59378125,23.7324003 5.87459375,24.0178245 6.0624375,24.330013 C6.08309375,24.3712513 6.140875,24.5226977 6.23484375,24.7823868 C6.32458689,25.0331637 6.41819173,25.2825469 6.515625,25.5304477 C6.60853125,25.7694865 6.7860625,26.0353521 7.04721875,26.325892 C7.30734375,26.6175237 7.6098125,26.8617408 7.9535625,27.0595724 C8.2973125,27.2563747 8.77109375,27.4027053 9.37496875,27.4964741 C9.97884375,27.5891824 10.6663125,27.5943606 11.4374063,27.5119151 L11.4374063,30.6464026 C11.4374063,30.6773157 11.43225,30.728848 11.4219375,30.8030271 C11.411625,30.8751474 11.3909688,30.9266797 11.36,30.9575929 C11.3290313,30.9895354 11.2867188,31.0204486 11.2340625,31.0523911 C11.1720361,31.0857434 11.1021385,31.1017584 11.03175,31.0987452 C10.948125,31.0987452 10.843875,31.0884513 10.7189688,31.0678633 C7.552,29.965315 4.9744375,28.0363781 2.98428125,25.2810837 C0.9950625,22.5257892 0,19.4232443 0,15.9714214 C0,13.8065026 0.4221875,11.7374427 1.2655625,9.76215166 Z" id="路径"></path>
                    </g>
                </g>
            </g>
        </g>
    </g>
</svg>