<?xml version="1.0" encoding="UTF-8"?>
<svg width="100px" height="100px" viewBox="0 0 100 100" version="1.1" xmlns="http://www.w3.org/2000/svg" xmlns:xlink="http://www.w3.org/1999/xlink">
    <title>编组 14</title>
    <g id="页面-1" stroke="none" stroke-width="1" fill="none" fill-rule="evenodd">
        <g id="Home" transform="translate(-170.000000, -866.000000)">
            <g id="编组-14" transform="translate(170.000000, 866.000000)">
                <rect id="矩形" x="0" y="0" width="100" height="100"></rect>
                <g id="编组-12" transform="translate(5.000000, 3.000000)">
                    <circle id="椭圆形" fill="#E6007A" cx="45" cy="20.5389958" r="9"></circle>
                    <circle id="椭圆形备份-3" fill="#E6007A" cx="45" cy="42.5389958" r="9"></circle>
                    <g id="编组-11" transform="translate(45.000000, 42.538996) rotate(45.000000) translate(-45.000000, -42.538996) translate(40.000000, 37.538996)" fill="#FFFFFF">
                        <rect id="矩形" x="0" y="4" width="10" height="2"></rect>
                        <rect id="矩形备份-32" x="4" y="0" width="2" height="10"></rect>
                    </g>
                    <path d="M42,55.5389958 L42.0195903,55.5472127 C43.9328705,56.3497214 46.0889323,56.346759 48,55.5389958 L48,55.5389958 L48,55.5389958 L48,79.5389958 L42,79.5389958 L42,55.5389958 Z" id="矩形" fill="#172026"></path>
                    <path d="M3.53767876,6.94374779 C8.05620963,15.1374857 18.3615396,18.1168297 26.5552775,13.5982988 C27.2429854,13.2190544 27.903492,12.7924522 28.5320191,12.3215784 L28.9658847,11.9965391 C38.456802,4.886226 51.5001125,4.88763562 60.9894927,12 L61.3628437,12.2798295 C68.9181253,17.9425719 79.633451,16.4083658 85.2961935,8.85308416 C85.7520014,8.24494115 86.1667499,7.60708071 86.5376788,6.94374779 L86.5376788,6.94374779 L86.5376788,6.94374779" id="路径-4" stroke="#172026" stroke-width="2" stroke-linecap="round"></path>
                    <path d="M17,19.1790507 L29.67427,63.5389958 L4.32572998,63.5389958 L17,19.1790507 Z" id="矩形" stroke="#172026" stroke-width="2"></path>
                    <path d="M73,19.1790507 L85.67427,63.5389958 L60.32573,63.5389958 L73,19.1790507 Z" id="矩形备份-3" stroke="#172026" stroke-width="2"></path>
                    <path d="M0,62.5389958 L34,62.5389958 C34,65.8527043 31.3137085,68.5389958 28,68.5389958 L6,68.5389958 C2.6862915,68.5389958 4.05812251e-16,65.8527043 0,62.5389958 L0,62.5389958 L0,62.5389958 Z" id="矩形" fill="#E6007A"></path>
                    <path d="M56,62.5389958 L90,62.5389958 C90,65.8527043 87.3137085,68.5389958 84,68.5389958 L62,68.5389958 C58.6862915,68.5389958 56,65.8527043 56,62.5389958 L56,62.5389958 L56,62.5389958 Z" id="矩形备份-29" fill="#E6007A"></path>
                    <path d="M37,78.5389958 L53,78.5389958 C56.3137085,78.5389958 59,81.2252873 59,84.5389958 L59,84.5389958 L59,84.5389958 L31,84.5389958 C31,81.2252873 33.6862915,78.5389958 37,78.5389958 Z" id="矩形备份-30" fill="#172026"></path>
                    <path d="M27,87.5389958 L63,87.5389958 C66.3137085,87.5389958 69,90.2252873 69,93.5389958 L69,93.5389958 L69,93.5389958 L21,93.5389958 C21,90.2252873 23.6862915,87.5389958 27,87.5389958 Z" id="矩形备份-31" fill="#172026"></path>
                    <polyline id="路径-5" stroke="#FFFFFF" stroke-width="2" points="40.4686518 20.5389958 44.0535895 23.7443724 49.2426407 17.6029461"></polyline>
                </g>
            </g>
        </g>
    </g>
</svg>