<svg xmlns="http://www.w3.org/2000/svg" width="256" height="56" viewBox="0 0 256 56"><g fill="none" fill-rule="evenodd"><rect width="56" height="56"/><g fill="#E6007A" transform="translate(3 9)"><path d="M50,37.762769 L28.1975051,0 C24.4327004,7.58374823 24.4147838,16.8498294 28.9655605,24.7319109 C33.516115,32.6138813 41.5497242,37.2313802 50,37.762769 Z"/><path d="M0,37.762769 L21.8023677,5.08624881e-05 C25.5672279,7.58377601 25.5851446,16.8498294 21.0344234,24.7318831 C16.48373,32.6138813 8.45014859,37.2313802 0,37.762769 Z"/></g><path fill="#2A292B" fill-rule="nonzero" d="M70.296,37 L70.296,30.328 L74.736,30.328 C78.84,30.328 80.904,28.576 80.904,25.072 C80.904,21.592 78.864,19.864 74.784,19.864 L67.68,19.864 L67.68,37 L70.296,37 Z M74.568,28.096 L70.296,28.096 L70.296,22.096 L74.568,22.096 C75.84,22.096 76.776,22.336 77.376,22.816 C77.976,23.248 78.288,24.016 78.288,25.072 C78.288,26.128 77.976,26.896 77.4,27.376 C76.8,27.856 75.864,28.096 74.568,28.096 Z M88.2545455,37.336 C90.1265455,37.336 91.6385455,36.688 92.7905455,35.44 C93.8945455,34.24 94.4465455,32.68 94.4465455,30.808 C94.4465455,28.912 93.8705455,27.352 92.7665455,26.128 C91.6385455,24.88 90.1265455,24.256 88.2545455,24.256 C86.3825455,24.256 84.8705455,24.88 83.7425455,26.128 C82.6145455,27.352 82.0625455,28.912 82.0625455,30.808 C82.0625455,32.68 82.6145455,34.24 83.7185455,35.44 C84.8705455,36.688 86.3825455,37.336 88.2545455,37.336 Z M88.2545455,35.248 C87.0785455,35.248 86.1665455,34.768 85.5185455,33.856 C84.9425455,33.064 84.6785455,32.056 84.6785455,30.808 C84.6785455,29.56 84.9425455,28.528 85.5185455,27.736 C86.1665455,26.8 87.0785455,26.344 88.2545455,26.344 C89.4305455,26.344 90.3425455,26.8 91.0145455,27.736 C91.5905455,28.528 91.8785455,29.56 91.8785455,30.808 C91.8785455,32.032 91.5905455,33.04 91.0145455,33.856 C90.3425455,34.768 89.4305455,35.248 88.2545455,35.248 Z M99.1570909,37 L99.1570909,19.528 L96.6130909,19.528 L96.6130909,37 L99.1570909,37 Z M104.323636,37 L104.323636,32.656 L105.739636,31.336 L110.203636,37 L113.467636,37 L107.491636,29.704 L112.987636,24.592 L109.699636,24.592 L104.323636,29.704 L104.323636,19.528 L101.779636,19.528 L101.779636,37 L104.323636,37 Z M118.082182,37.336 C119.186182,37.336 120.146182,37.12 120.962182,36.736 C121.682182,36.376 122.282182,35.872 122.762182,35.248 L122.762182,37 L125.114182,37 L125.114182,29.08 C125.114182,27.568 124.730182,26.416 123.986182,25.624 C123.122182,24.712 121.778182,24.256 119.954182,24.256 C118.418182,24.256 117.170182,24.52 116.258182,25.096 C115.202182,25.72 114.530182,26.728 114.266182,28.072 L116.786182,28.288 C116.930182,27.592 117.290182,27.088 117.866182,26.752 C118.346182,26.464 118.994182,26.32 119.786182,26.32 C121.658182,26.32 122.594182,27.184 122.594182,28.912 L122.594182,29.416 L119.810182,29.488 C117.986182,29.536 116.546182,29.896 115.538182,30.616 C114.434182,31.36 113.882182,32.44 113.882182,33.832 C113.882182,34.864 114.266182,35.704 115.058182,36.352 C115.778182,37 116.786182,37.336 118.082182,37.336 Z M118.658182,35.392 C118.010182,35.392 117.482182,35.224 117.098182,34.912 C116.690182,34.6 116.498182,34.216 116.498182,33.736 C116.498182,32.2 117.650182,31.384 119.978182,31.336 L122.594182,31.264 L122.594182,31.984 C122.594182,32.944 122.186182,33.76 121.418182,34.408 C120.650182,35.056 119.738182,35.392 118.658182,35.392 Z M132.728727,37.336 C134.408727,37.336 135.704727,36.712 136.568727,35.512 L136.568727,37 L138.944727,37 L138.944727,19.528 L136.400727,19.528 L136.400727,26.44 C135.392727,24.976 134.120727,24.256 132.608727,24.256 C130.832727,24.256 129.416727,24.904 128.408727,26.2 C127.448727,27.4 126.992727,28.912 126.992727,30.736 C126.992727,32.632 127.472727,34.192 128.432727,35.392 C129.464727,36.688 130.904727,37.336 132.728727,37.336 Z M133.112727,35.272 C131.864727,35.272 130.928727,34.816 130.352727,33.928 C129.848727,33.16 129.608727,32.104 129.608727,30.736 C129.608727,29.368 129.872727,28.312 130.400727,27.592 C131.000727,26.728 131.936727,26.32 133.184727,26.32 C134.120727,26.32 134.888727,26.68 135.512727,27.448 C136.136727,28.264 136.472727,29.344 136.472727,30.688 L136.472727,30.904 C136.472727,32.152 136.208727,33.16 135.680727,33.952 C135.056727,34.816 134.216727,35.272 133.112727,35.272 Z M146.991273,37.336 C148.863273,37.336 150.375273,36.688 151.527273,35.44 C152.631273,34.24 153.183273,32.68 153.183273,30.808 C153.183273,28.912 152.607273,27.352 151.503273,26.128 C150.375273,24.88 148.863273,24.256 146.991273,24.256 C145.119273,24.256 143.607273,24.88 142.479273,26.128 C141.351273,27.352 140.799273,28.912 140.799273,30.808 C140.799273,32.68 141.351273,34.24 142.455273,35.44 C143.607273,36.688 145.119273,37.336 146.991273,37.336 Z M146.991273,35.248 C145.815273,35.248 144.903273,34.768 144.255273,33.856 C143.679273,33.064 143.415273,32.056 143.415273,30.808 C143.415273,29.56 143.679273,28.528 144.255273,27.736 C144.903273,26.8 145.815273,26.344 146.991273,26.344 C148.167273,26.344 149.079273,26.8 149.751273,27.736 C150.327273,28.528 150.615273,29.56 150.615273,30.808 C150.615273,32.032 150.327273,33.04 149.751273,33.856 C149.079273,34.768 148.167273,35.248 146.991273,35.248 Z M161.349818,37 L161.349818,34.888 L159.717818,34.888 C159.405818,34.888 159.189818,34.792 159.045818,34.648 C158.901818,34.48 158.829818,34.24 158.829818,33.904 L158.829818,26.704 L161.661818,26.704 L161.661818,24.592 L158.829818,24.592 L158.829818,20.584 L156.285818,21.64 L156.285818,24.592 L153.981818,24.592 L153.981818,26.704 L156.285818,26.704 L156.285818,33.904 C156.285818,34.888 156.501818,35.632 156.981818,36.16 C157.461818,36.712 158.253818,37 159.309818,37 L161.349818,37 Z M171.946909,37 L173.554909,32.584 L180.922909,32.584 L182.530909,37 L185.338909,37 L178.738909,19.864 L175.762909,19.864 L169.162909,37 L171.946909,37 Z M180.130909,30.424 L174.346909,30.424 L177.202909,22.672 L177.298909,22.672 L180.130909,30.424 Z M189.065455,37 L189.065455,19.528 L186.521455,19.528 L186.521455,37 L189.065455,37 Z M194.52,37 L194.52,19.528 L191.976,19.528 L191.976,37 L194.52,37 Z M198.942545,23.056 C199.422545,23.056 199.854545,22.888 200.190545,22.576 C200.526545,22.24 200.718545,21.832 200.718545,21.328 C200.718545,20.824 200.550545,20.416 200.214545,20.104 C199.878545,19.768 199.446545,19.624 198.942545,19.624 C198.438545,19.624 198.030545,19.768 197.694545,20.104 C197.358545,20.416 197.190545,20.824 197.190545,21.328 C197.190545,21.808 197.358545,22.24 197.694545,22.576 C198.030545,22.888 198.438545,23.056 198.942545,23.056 Z M200.214545,37 L200.214545,24.592 L197.670545,24.592 L197.670545,37 L200.214545,37 Z M206.821091,37.336 C207.925091,37.336 208.885091,37.12 209.701091,36.736 C210.421091,36.376 211.021091,35.872 211.501091,35.248 L211.501091,37 L213.853091,37 L213.853091,29.08 C213.853091,27.568 213.469091,26.416 212.725091,25.624 C211.861091,24.712 210.517091,24.256 208.693091,24.256 C207.157091,24.256 205.909091,24.52 204.997091,25.096 C203.941091,25.72 203.269091,26.728 203.005091,28.072 L205.525091,28.288 C205.669091,27.592 206.029091,27.088 206.605091,26.752 C207.085091,26.464 207.733091,26.32 208.525091,26.32 C210.397091,26.32 211.333091,27.184 211.333091,28.912 L211.333091,29.416 L208.549091,29.488 C206.725091,29.536 205.285091,29.896 204.277091,30.616 C203.173091,31.36 202.621091,32.44 202.621091,33.832 C202.621091,34.864 203.005091,35.704 203.797091,36.352 C204.517091,37 205.525091,37.336 206.821091,37.336 Z M207.397091,35.392 C206.749091,35.392 206.221091,35.224 205.837091,34.912 C205.429091,34.6 205.237091,34.216 205.237091,33.736 C205.237091,32.2 206.389091,31.384 208.717091,31.336 L211.333091,31.264 L211.333091,31.984 C211.333091,32.944 210.925091,33.76 210.157091,34.408 C209.389091,35.056 208.477091,35.392 207.397091,35.392 Z M218.755636,37 L218.755636,29.536 C218.851636,28.528 219.211636,27.736 219.787636,27.16 C220.315636,26.632 220.963636,26.392 221.683636,26.392 C223.603636,26.392 224.587636,27.448 224.587636,29.56 L224.587636,37 L227.131636,37 L227.131636,29.344 C227.131636,25.936 225.571636,24.256 222.499636,24.256 C221.731636,24.256 221.035636,24.4 220.411636,24.736 C219.787636,25.048 219.235636,25.504 218.755636,26.128 L218.755636,24.592 L216.211636,24.592 L216.211636,37 L218.755636,37 Z M234.962182,37.336 C236.546182,37.336 237.842182,36.928 238.802182,36.136 C239.762182,35.32 240.410182,34.072 240.698182,32.416 L238.178182,32.416 C237.938182,34.288 236.882182,35.248 234.986182,35.248 C233.882182,35.248 233.066182,34.84 232.514182,34.072 C231.914182,33.28 231.626182,32.176 231.626182,30.784 C231.626182,29.392 231.914182,28.288 232.538182,27.52 C233.138182,26.728 233.954182,26.344 235.010182,26.344 C235.874182,26.344 236.570182,26.536 237.098182,26.944 C237.626182,27.328 237.962182,27.952 238.130182,28.792 L240.650182,28.792 C240.410182,27.256 239.786182,26.104 238.826182,25.336 C237.866182,24.616 236.594182,24.256 235.010182,24.256 C233.090182,24.256 231.602182,24.904 230.522182,26.2 C229.514182,27.4 229.010182,28.936 229.010182,30.808 C229.010182,32.728 229.514182,34.264 230.546182,35.464 C231.602182,36.712 233.066182,37.336 234.962182,37.336 Z M247.688727,37.336 C249.344727,37.336 250.712727,36.856 251.792727,35.92 C252.656727,35.152 253.208727,34.168 253.496727,33.016 L250.952727,33.016 C250.616727,33.736 250.256727,34.288 249.824727,34.624 C249.272727,35.032 248.552727,35.248 247.664727,35.248 C246.656727,35.248 245.864727,34.912 245.288727,34.288 C244.712727,33.64 244.400727,32.704 244.304727,31.504 L253.712727,31.504 C253.688727,29.296 253.184727,27.568 252.224727,26.32 C251.168727,24.928 249.608727,24.256 247.592727,24.256 C245.768727,24.256 244.304727,24.88 243.248727,26.152 C242.144727,27.4 241.616727,28.936 241.616727,30.784 C241.616727,32.824 242.192727,34.432 243.344727,35.632 C244.400727,36.76 245.864727,37.336 247.688727,37.336 Z M251.048727,29.584 L244.352727,29.584 C244.496727,28.528 244.856727,27.736 245.384727,27.184 C245.960727,26.608 246.704727,26.344 247.664727,26.344 C249.680727,26.344 250.808727,27.424 251.048727,29.584 Z"/><rect width="256" height="56"/></g></svg>
