<?xml version="1.0" encoding="UTF-8"?>
<svg width="56px" height="56px" viewBox="0 0 56 56" version="1.1" xmlns="http://www.w3.org/2000/svg" xmlns:xlink="http://www.w3.org/1999/xlink">
    <title>编组 3</title>
    <g id="页面-1" stroke="none" stroke-width="1" fill="none" fill-rule="evenodd">
        <g id="Home" transform="translate(-80.000000, -2333.000000)">
            <g id="编组-3" transform="translate(80.000000, 2333.000000)">
                <circle id="椭圆形" fill="#FFFFFF" cx="28" cy="28" r="28"></circle>
                <g id="编组-63备份-2" transform="translate(6.400000, 5.400000)" fill="#FF3043" fill-rule="nonzero">
                    <path d="M6.8963934,2.25250594 C17.2969132,-1.94957683 27.9317957,-0.131449956 30.6236114,6.53102787 C32.2545761,10.5678071 30.5727703,15.4756532 26.3582819,19.7218004 L26.2297957,19.8502674 L26.0900527,19.9877197 C23.4190311,22.6485857 19.9121441,24.9230852 15.9321156,26.5311211 C14.1176357,27.2642186 12.2498565,27.8111443 10.3645392,28.1815454 L9.60204039,33.0620136 L9.49245461,33.7677844 L9.30488623,35.0223671 L9.19076829,35.8346248 L9.12693801,36.3178195 L9.03696,37.0654272 L8.99774555,37.4376805 L8.9602429,37.854709 L8.94378151,38.0790622 L8.93160525,38.2857711 L8.92354458,38.4758155 L8.91941844,38.6488952 L8.91977884,38.8628991 L8.92090358,38.9131389 C8.93297582,39.3639881 9.10512385,39.7272972 9.43785009,39.919555 C9.66815688,40.0526323 10.145957,40.0567909 10.8479018,39.9001741 L10.9165309,39.8845147 L10.9808545,39.8686432 L11.0558811,39.8467626 L11.084329,39.8377871 L11.2055308,39.794437 L11.2920565,39.7596829 L11.3831046,39.7202232 L11.5278959,39.6518358 L12.2293083,39.2245786 L13.120252,38.6780236 L13.8377677,38.2341313 L14.4973318,37.8223134 L15.0165268,37.4948701 L15.4931074,37.1910187 L15.8576927,36.9558397 L16.1280384,36.7795034 L16.4393087,36.5738477 L16.6669894,36.4211395 L16.9241279,36.2455722 L21.1978376,33.2796025 L22.6262196,32.295216 L23.0534476,32.0067476 L23.1950816,31.9122693 L23.4641632,31.7344467 L23.7149471,31.571205 L23.8914729,31.4581514 L24.1120188,31.3196624 L24.316305,31.1948812 L24.4592949,31.1101003 L24.5938682,31.0327175 L24.6790621,30.985173 L24.8003024,30.919823 L24.8768971,30.8801764 L24.9502143,30.8436194 L25.0373929,30.8022077 L25.1197759,30.7654841 L25.1823511,30.7394287 L25.2420655,30.7162843 L25.2990119,30.6960115 L25.326476,30.6869394 L25.379444,30.6708994 L25.4298754,30.6576316 L25.4541689,30.6520249 L25.5009693,30.6428411 L25.5234993,30.6392541 L25.566877,30.634065 L25.6080888,30.6314895 L25.6279114,30.6311694 C27.0009581,30.6311694 27.7173957,31.3588573 27.7173957,32.5146776 L27.7171215,32.5389336 L27.7162986,32.5642772 L27.7130061,32.6182328 L27.710536,32.6468476 L27.7039466,32.7073579 L27.6926154,32.789161 L27.6778423,32.8778344 L27.663543,32.953734 L27.6379549,33.0758771 L27.6181339,33.1628507 L27.5842539,33.3016559 L27.5453899,33.4505073 L27.5015353,33.6094418 L27.469523,33.721018 L27.4173359,33.8968392 L27.3601405,34.0828415 L27.3192245,34.2125173 L27.2536671,34.4155697 L27.1830837,34.6289012 L27.0811427,34.9293963 L26.9988061,35.1668552 L26.88117,35.4996536 L26.8189817,35.6730145 L26.6878544,36.0337138 L26.5477133,36.4131227 L26.3537817,36.9294179 L26.5671215,36.7831692 C27.0508154,36.4556415 27.49473,36.171603 27.9210777,35.9176605 L28.0369355,35.8491396 L28.1520224,35.7820506 C28.4851663,35.5892717 28.8079086,35.4149494 29.1210743,35.2592704 L29.2547042,35.1936929 L29.4310782,35.1098129 C31.3307675,34.2231553 32.8739977,34.053334 34.2564697,34.6446466 C35.3798187,35.1253148 35.9231938,35.7743079 36.4434706,37.1746149 L36.4718298,37.2517439 L36.5685135,37.5255991 L36.7140315,37.9564349 L36.7515527,38.0645869 L36.8271912,38.2711774 C37.079339,38.9328274 37.343878,39.34113 37.6211715,39.519642 C38.0874743,39.8198315 38.7260257,39.9315495 39.7270291,39.8788451 L39.9098407,39.8678022 L40.1085156,39.8534727 L40.210973,39.8452799 L40.4218816,39.8268716 L40.6404542,39.8058111 L40.7524915,39.7943031 L41.0402143,39.762735 L41.3382214,39.7272534 L41.4601318,39.7119884 L41.7083234,39.6796572 L41.9620151,39.6449688 L42.2208134,39.6079769 L42.4843249,39.5687352 L42.6177251,39.5482875 L42.8875686,39.5057716 L43.0239135,39.4837169 L43.2992038,39.4380476 L43.5776335,39.390343 L43.8588091,39.3406567 L44.1423372,39.2890425 L44.4278243,39.2355539 L44.7148771,39.1802446 L45.003102,39.1231683 L45.2921057,39.0643785 L45.5814946,39.003929 L45.8708754,38.9418733 L46.1598546,38.8782651 L46.5199144,38.7966535 L46.8779635,38.7128046 L47.1624387,38.6441851 C47.2884186,38.6133922 47.4137549,38.5822109 47.5382921,38.5506622 L47.7244793,38.5030664 L48.066667,38.4147926 L47.9348992,39.6188164 L47.7873943,39.6784342 L47.3508963,39.8533117 L46.9233705,40.0222583 L46.6433041,40.1316155 L46.3671746,40.2383686 L45.9603179,40.3936428 L45.6939422,40.4939406 L45.4314327,40.5916785 L45.1727689,40.6868692 L44.9179307,40.7795253 L44.542802,40.9137848 L44.1761668,41.0424128 L43.9364283,41.1250573 L43.700414,41.2052305 L43.3533312,41.3208846 L43.126539,41.3949352 L42.8481838,41.4840872 L42.5754975,41.5694719 L42.3614034,41.6350839 L42.1508918,41.6983133 L41.9439423,41.7591729 L41.7405348,41.8176752 L41.540649,41.8738331 L41.3442646,41.927659 L41.0562089,42.0040535 L40.8684895,42.0521053 L40.6842006,42.0978695 L40.5033219,42.1413589 L40.2819885,42.1925409 L40.0659123,42.2402131 L39.8550539,42.2844001 L39.6493737,42.3251266 L39.5685426,42.3404539 L39.3700454,42.3763774 L39.1766314,42.4089 L39.0255336,42.4324859 L38.8599231,42.4563978 L38.6800146,42.4800094 C37.293549,42.6519751 36.4385849,42.519662 35.7837364,42.1558462 C34.9403844,41.6873029 34.4485964,41.0652906 33.9839492,39.971515 L33.9515719,39.8944357 L33.8897892,39.7426266 L33.8589315,39.6645356 L33.7971764,39.5038755 L33.7662362,39.4212643 L33.6101679,38.9892472 L33.3898271,38.3430379 L33.3262646,38.1655879 L33.2670252,38.0094874 L33.2095355,37.8687086 L33.1906967,37.8250926 L33.1723868,37.7839277 L33.1372062,37.7086488 C33.0286051,37.4846702 32.9451678,37.3944994 32.8447403,37.3515276 C32.6818276,37.2818464 32.4269124,37.2839828 32.0948921,37.3589667 L32.0355029,37.3729556 L31.9393756,37.3978904 C31.7993147,37.4361628 31.6475982,37.4858019 31.4851416,37.5468711 L31.4030225,37.5783585 L31.2850969,37.6256447 L31.1637824,37.6766729 L31.1018761,37.7035918 L31.0391488,37.731448 L30.9112659,37.7899749 L30.7802034,37.8522584 L30.646031,37.9183032 L30.5088186,37.9881143 L30.368636,38.0616963 L30.2974526,38.099903 L30.1529453,38.1791507 L30.0427262,38.2410688 L29.9309639,38.305117 L29.8547731,38.3503627 L29.7642535,38.4061519 L29.5842249,38.5207616 L29.4603177,38.6014231 L29.2304885,38.7535556 L28.9218463,38.9615303 L28.5848237,39.1922189 L28.1662887,39.4829834 L27.7948467,39.7446792 L27.4552668,39.9869434 L27.2457447,40.1379381 L27.0418188,40.2861105 L26.8442483,40.4309189 L26.6537927,40.5718217 L26.4712112,40.7082772 L26.2137642,40.9034368 L25.2854069,41.6245936 L25.1789756,41.7051154 C24.879051,41.9293018 24.6454732,42.0832643 24.4123424,42.2044788 C24.0023633,42.4176441 23.6015392,42.5196743 23.1348607,42.5196743 C21.9895847,42.5196743 21.0453764,41.6864144 21.0453764,40.6361661 C21.0453764,40.5019332 21.0609841,40.3693495 21.0937132,40.2330836 L21.1115115,40.164619 L21.1426106,40.0662112 C21.2533626,39.726446 21.409401,39.3819176 21.6348093,38.9924871 L21.6769714,38.9203269 L23.3015369,35.5678724 L22.7138743,36.0753705 L22.053509,36.639092 L21.4085917,37.1831205 L20.9866148,37.5353763 L20.3669971,38.0469549 L19.9621438,38.3773586 L19.5640189,38.6991194 L19.1722663,39.0125175 L18.5981161,39.4657211 L18.2231074,39.7575535 L17.674164,40.1783502 L17.3163089,40.4482981 L16.9646639,40.7099707 L16.4509224,41.0854326 L16.1164458,41.3252004 L15.7886275,41.5563526 L15.4686763,41.7780587 L15.308715,41.887367 L14.8450017,42.198151 L14.5436886,42.3948771 L14.2489617,42.5830065 L13.9624945,42.761508 L13.8191759,42.8490903 L13.5408208,43.015745 L13.2710005,43.1726625 L13.1354732,43.2496341 L12.8733182,43.3948359 L12.6200507,43.5301793 L12.4921071,43.5965569 L12.2487117,43.7189578 L12.1251872,43.7789797 L11.8916073,43.8884361 L11.7723766,43.9420937 L11.5485433,44.0385984 C11.3988425,44.1011719 11.2535211,44.1578746 11.11255,44.208699 C8.64247825,45.099236 6.08205479,44.6693133 4.84670741,43.169155 C4.39293303,42.6179773 4.12180525,42.1352209 4.03835138,41.5037604 L4.02664917,41.4025481 L4.01385713,41.2624932 L4.00570895,41.1482805 L3.99941385,41.0319345 L3.99497123,40.9132655 L3.99344441,40.8530007 L3.99163168,40.7304918 L3.99163168,40.6051859 L3.99400168,40.4768934 L3.99788781,40.3454246 L4.00362311,40.21059 L4.01569197,40.001612 L4.02604761,39.857533 L4.04158955,39.6717452 L4.06001638,39.4792908 L4.07683419,39.3202784 L4.09549698,39.1565727 L4.11600416,38.9879839 L4.13835512,38.8143226 L4.16254927,38.6353991 L4.188586,38.4510236 L4.21646473,38.2610067 L4.26173522,37.9649886 L4.29421628,37.7600382 L4.34638748,37.4407311 L4.40285659,37.1064332 L4.44637035,36.8645889 L4.50694821,36.5536809 L4.60957805,36.0614254 L4.86567142,34.8885076 L6.09165175,29.4036448 L6.24512053,28.7127914 C4.474667,28.824359 2.71158617,28.7874759 0.985183317,28.6100476 L0.738807013,28.5837455 L0,28.5019266 L0.515159739,26.0771836 L1.22523242,26.0770357 L1.70885924,26.0747662 L1.86645348,26.0733799 L2.17643355,26.0696245 L2.47970643,26.0645164 L2.77655694,26.0580048 L3.06726991,26.0500388 L3.21041384,26.0454945 L3.49245458,26.0352516 L3.76906988,26.0234273 L4.04054455,26.0099707 L4.30716345,25.994831 L4.43874099,25.9866142 L4.69861026,25.9688546 L4.95433584,25.9492848 C5.09530733,25.9379005 5.2344923,25.9256547 5.37211053,25.912508 L5.57739031,25.8921076 L5.82085599,25.8658021 L5.94149779,25.851888 L6.18077736,25.8225052 L6.29948632,25.8070238 L6.53522064,25.7744493 C6.65928445,25.7566542 6.78250674,25.7379406 6.90507687,25.7182745 L6.95816172,25.4738311 L7.17081892,24.4690549 L7.3129019,23.7788655 L7.44199231,23.1586101 L7.5747977,22.5313404 L7.71125851,21.8972333 L7.85131513,21.2564654 L7.92267325,20.933639 L8.06801186,20.2832115 L8.21679732,19.6265651 L8.29246399,19.2959651 L8.44630798,18.630322 L8.5244704,18.295323 L8.68323885,17.6210807 L8.76382997,17.2818815 L8.9273888,16.5994378 L9.09406672,15.9117474 L9.26380416,15.218987 L9.34980157,14.8707608 L9.52401654,14.170727 L9.70114205,13.466065 L9.93403566,12.5494401 L12.894247,11.9870714 L10.908687,24.6974692 L10.9574654,24.6812429 L11.2071689,24.5951854 L11.5245195,24.4830966 L11.8481908,24.3658963 L12.1120526,24.2683891 L12.3806005,24.1674963 L12.6541193,24.0631669 L12.7928318,24.0096976 L13.0743412,23.9001182 L13.3615335,23.7869752 L13.6546937,23.6702178 L13.9541066,23.5497952 C22.5654219,20.070598 27.7621838,13.0656034 25.7340675,8.04583943 C23.8075229,3.27747427 15.6043426,2.37285982 6.75856488,5.8629624 L6.49032012,5.97006881 L5.85321083,6.22291979 L4.62604594,6.74433111 L5.44706717,2.87210594 L5.76593688,2.73399324 L6.23497358,2.53159978 L6.70351973,2.33222582 L6.8963934,2.25250594 Z" id="路径"></path>
                </g>
            </g>
        </g>
    </g>
</svg>