<?xml version="1.0" encoding="UTF-8"?>
<svg width="24px" height="24px" viewBox="0 0 24 24" version="1.1" xmlns="http://www.w3.org/2000/svg" xmlns:xlink="http://www.w3.org/1999/xlink">
    <title>search_black_24dp</title>
    <g id="页面-1" stroke="none" stroke-width="1" fill="none" fill-rule="evenodd">
        <g id="Members" transform="translate(-309.000000, -145.000000)">
            <g id="编组-3" transform="translate(285.000000, 130.000000)">
                <g id="search_black_24dp" transform="translate(24.000000, 15.000000)">
                    <polygon id="路径" points="0 0 24 0 24 24 0 24"></polygon>
                    <path d="M15.5,15 L14.71,15 L14.43,14.73 C15.41,13.59 16,12.11 16,10.5 C16,6.91 13.09,4 9.5,4 C5.91,4 3,6.91 3,10.5 C3,14.09 5.91,17 9.5,17 C11.11,17 12.59,16.41 13.73,15.43 L14,15.71 L14,16.5 L19,21.49 L20.49,20 L15.5,15 Z M9.5,15 C7.01,15 5,12.99 5,10.5 C5,8.01 7.01,6 9.5,6 C11.99,6 14,8.01 14,10.5 C14,12.99 11.99,15 9.5,15 Z" id="形状" fill="#5B6165" fill-rule="nonzero"></path>
                </g>
            </g>
        </g>
    </g>
</svg>