<?xml version="1.0" encoding="UTF-8"?>
<svg width="16px" height="16px" viewBox="0 0 16 16" version="1.1" xmlns="http://www.w3.org/2000/svg" xmlns:xlink="http://www.w3.org/1999/xlink">
    <title>Unverified Sub-Identity</title>
    <g id="页面-1" stroke="none" stroke-width="1" fill="none" fill-rule="evenodd">
        <g id="Ui-Library" transform="translate(-142.000000, -2462.000000)" fill="#BAB8C0">
            <g id="形状结合" transform="translate(142.000000, 2462.000000)">
                <path d="M8,0 C12.418278,0 16,3.581722 16,8 C16,12.418278 12.418278,16 8,16 C3.581722,16 0,12.418278 0,8 C0,3.581722 3.581722,0 8,0 Z M10.9166667,5.08333333 L8.58333333,5.08333333 L8.58333333,6.25 L10.9166667,6.25 C11.8791667,6.25 12.6666667,7.0375 12.6666667,8 C12.6666667,8.9625 11.8791667,9.75 10.9166667,9.75 L8.58333333,9.75 L8.58333333,10.9166667 L10.9166667,10.9166667 C12.5266667,10.9166667 13.8333333,9.61 13.8333333,8 C13.8333333,6.39 12.5266667,5.08333333 10.9166667,5.08333333 Z M7.41666667,5.08333333 L5.08333333,5.08333333 C3.47333333,5.08333333 2.16666667,6.39 2.16666667,8 C2.16666667,9.61 3.47333333,10.9166667 5.08333333,10.9166667 L7.41666667,10.9166667 L7.41666667,9.75 L5.08333333,9.75 C4.12083333,9.75 3.33333333,8.9625 3.33333333,8 C3.33333333,7.0375 4.12083333,6.25 5.08333333,6.25 L7.41666667,6.25 L7.41666667,5.08333333 Z M10.3333333,7.41666667 L5.66666667,7.41666667 L5.66666667,8.58333333 L10.3333333,8.58333333 L10.3333333,7.41666667 Z"></path>
            </g>
        </g>
    </g>
</svg>